<svg width="102" height="28" viewBox="0 0 102 28" fill="none" xmlns="http://www.w3.org/2000/svg">
<mask id="mask0_120_408" style="mask-type:luminance" maskUnits="userSpaceOnUse" x="0" y="0" width="102" height="28">
<path d="M0 0H101.787V28H0V0Z" fill="white"/>
</mask>
<g mask="url(#mask0_120_408)">
<path d="M15.8233 27.9424C15.2909 27.9574 14.7729 27.7745 14.3752 27.4311C13.9776 27.0878 13.7303 26.61 13.6843 26.0957L13.4436 24.2668C11.1511 23.6335 9.80993 21.989 9.46152 19.378L7.3982 3.96905C6.9556 3.90001 6.5076 3.86878 6.05936 3.87572C5.3959 3.87045 4.73483 3.95345 4.09465 4.12238V27.4913H0.0460205V8.70684C0.0460205 6.15793 1.22668 4.35794 3.37708 3.60905V2.39794C3.37708 0.997938 4.25512 0.0579359 5.55958 0.0579359C6.86404 0.0579359 7.68248 0.844599 7.89339 2.28016L8.05384 3.40238C10.4083 4.04016 11.7838 5.87349 12.1919 8.84902L14.0993 23.7024C15.2389 23.9157 16.4101 23.9157 17.5496 23.7024L19.457 8.85128C19.8559 5.87349 21.2474 4.04016 23.595 3.39571L23.7555 2.27349C23.9664 0.844599 24.7963 0.0512695 26.0893 0.0512695C27.3823 0.0512695 28.2718 0.991273 28.2718 2.39127V3.60238C30.4222 4.35127 31.6028 6.15127 31.6028 8.70016V27.4846H27.5497V4.12016C26.9095 3.95122 26.2484 3.86823 25.5849 3.87349C25.1367 3.86655 24.6887 3.89778 24.2461 3.96682L22.1828 19.378C21.8412 21.9424 20.468 23.6268 18.2007 24.2668L17.9737 26.098C17.9383 26.618 17.6925 27.1035 17.2898 27.4489C16.8872 27.7943 16.3602 27.9716 15.8233 27.9424ZM14.1933 24.4446L14.4019 26.0202C14.4238 26.3657 14.5853 26.6888 14.8514 26.9198C15.1174 27.1506 15.4666 27.2705 15.8233 27.2535C16.0008 27.2659 16.1789 27.2435 16.3473 27.1879C16.5157 27.1323 16.6709 27.0445 16.8037 26.9297C16.9364 26.8149 17.0441 26.6755 17.1202 26.5196C17.1963 26.3637 17.2395 26.1947 17.2469 26.0224L17.4556 24.4446C16.3754 24.6164 15.2735 24.6164 14.1933 24.4446ZM28.2718 26.8024H30.8807V8.70684C30.8807 6.54682 29.982 5.05571 28.2718 4.36015V26.8024ZM0.761293 26.8024H3.37708V4.36015C1.66914 5.05571 0.779634 6.54682 0.779634 8.70684L0.761293 26.8024ZM8.15705 4.16016L10.1791 19.2868C10.468 21.4757 11.534 22.8913 13.3451 23.509L11.4766 8.93574C11.1327 6.36682 10.0438 4.79793 8.15705 4.16016ZM23.4918 4.16016C21.6051 4.79793 20.5116 6.36683 20.1722 8.93792L18.3038 23.5002C20.1172 22.8824 21.181 21.4668 21.4698 19.2779L23.4918 4.16016ZM4.09923 3.38683C4.74231 3.23525 5.40213 3.16061 6.06395 3.1646C6.47781 3.16037 6.89147 3.18413 7.30191 3.23571L7.17812 2.36238C7.01993 1.29127 6.47431 0.749047 5.55958 0.749047C4.64486 0.749047 4.09923 1.37794 4.09923 2.38905V3.38683ZM25.5849 3.1646C26.2467 3.16061 26.9066 3.23525 27.5497 3.38683V2.39794C27.5497 1.38683 26.9903 0.757936 26.0893 0.757936C25.1883 0.757936 24.6289 1.30016 24.4708 2.37127L24.3469 3.2446C24.7574 3.19301 25.1711 3.16925 25.5849 3.17349V3.1646Z" fill="#F6C1A6"/>
<path d="M42.7789 27.4915H38.8013V0.509277H42.7789V27.4915ZM39.5235 26.7915H42.0567V1.20928H39.5235V26.7915Z" fill="#F6C1A6"/>
<path d="M68.5837 27.9425C66.8574 27.9425 66.4631 26.4159 66.3347 25.9136L66.0366 24.6336C63.453 24.1892 61.8757 22.5737 61.2223 19.7092L57.4786 3.94922C57.0504 3.89724 56.6194 3.872 56.1878 3.87366C55.4714 3.8624 54.7572 3.95606 54.0695 4.15144V27.4847H50.0164V8.59587C50.0164 6.15144 51.1626 4.45144 53.3474 3.65589V2.3981C53.3474 0.998105 54.2232 0.0581055 55.5276 0.0581055C56.6533 0.0581055 57.4808 0.751439 57.7423 1.91144L58.0747 3.33366C60.5964 3.77811 62.1095 5.34699 62.8133 8.2559L66.6304 24.0181C67.0601 24.07 67.4927 24.0953 67.9257 24.0936C68.6393 24.099 69.3506 24.0146 70.0417 23.8426V0.509218H74.0949V20.0003C74.0949 22.0003 72.8868 23.5693 70.7639 24.3403V25.5559C70.7639 27.0315 69.9294 27.9425 68.5837 27.9425ZM66.8047 24.7448L67.0339 25.7515C67.3067 26.8092 67.7561 27.2425 68.5814 27.2425C69.4984 27.2425 70.0394 26.6314 70.0394 25.5648V24.5603C69.3454 24.7142 68.6353 24.7888 67.9234 24.7826C67.5498 24.7834 67.1764 24.7656 66.8047 24.7292V24.7404V24.7448ZM50.7385 26.7914H53.3474V4.407C51.6142 5.13367 50.7385 6.54033 50.7385 8.59369V26.7914ZM58.2511 4.08033L61.9192 19.5537C62.4877 22.0314 63.7533 23.4203 65.8533 23.8848L62.1118 8.41145C61.502 5.8981 60.303 4.54033 58.2511 4.08033ZM70.7639 1.20922V23.5959C72.4511 22.9025 73.3728 21.6425 73.3728 20.0092V1.20922H70.7639ZM54.0695 3.41366C54.7613 3.24079 55.4735 3.15711 56.1878 3.16478C56.5615 3.16392 56.9349 3.18172 57.3066 3.21811V3.20699L57.0361 2.05367C56.9261 1.56477 56.5776 0.749216 55.5276 0.749216C54.4776 0.749216 54.0695 1.59588 54.0695 2.38921V3.41366Z" fill="#F6C1A6"/>
<path d="M101.927 27.4911H97.6855L95.5949 19.4556H83.8384L81.7863 27.4911H77.5453L83.0151 7.97558C83.648 5.74668 85.0945 4.22223 87.2084 3.55557L87.5867 2.02223C87.8156 1.17778 88.2742 0.0644531 89.7206 0.0644531C91.1679 0.0644531 91.6281 1.17557 91.853 2.01557L92.2265 3.55557C94.3355 4.22223 95.7828 5.75334 96.4173 7.98001L101.927 27.4911ZM98.2469 26.7911H100.98L95.721 8.15999C95.2005 6.33112 94.0721 5.03334 92.4401 4.38223L95.6904 16.8289H83.7926L87.002 4.37112C85.3676 5.03779 84.2391 6.3289 83.7195 8.14887L78.4967 26.7911H81.2297L83.281 18.7556H96.149L98.2469 26.7911ZM84.721 16.1244H94.758L91.6305 4.10223C90.3776 3.79333 89.0645 3.79333 87.8115 4.10223L84.721 16.1244ZM88.0107 3.31556V3.34223C89.14 3.11778 90.3045 3.11778 91.4338 3.34223V3.31334L91.1535 2.17334C90.8812 1.15334 90.4796 0.753342 89.723 0.753342C88.9665 0.753342 88.5657 1.15335 88.2902 2.18001L88.0107 3.31334V3.31556Z" fill="#F6C1A6"/>
</g>
</svg>
